# xmcd
#
# Track frame offsets: 
#        150
#        11857
#        23708
#        36369
#        49142
#        60437
#        71590
#        80690
#        91186
#        102342
#        111217
#        123870
#        143515
#        158190
#
# Disc length: 2320 seconds
#
# Revision: 4
# Processed by: cddbd v1.5.2PL0 Copyright (c) Steve Scherf et al.
# Submitted via: ExactAudioCopy v1.1
#
DISCID=b3090e0e
DTITLE=John Lee Hooker - Urban Blues
DYEAR=1967
DGENRE=Blues
TTITLE0=Cry Before I Go (stereo)
TTITLE1=Boom Boom (1967) (stereo)
TTITLE2=Backbiters And Syndicators (stereo)
TTITLE3=Mr. Lucky (stereo)
TTITLE4=My Own Blues (stereo)
TTITLE5=I Can't Stand To Leave You (stereo)
TTITLE6=Think Twice Before You Go (stereo)
TTITLE7=I'm Standing In Line (stereo)
TTITLE8=Hot Spring Water, Part I (stereo)
TTITLE9=Hot Spring Water, Part II (stereo)
TTITLE10=The Motor City Is Burning (stereo)
TTITLE11=I Gotta Go To Vietnam (stereo)
TTITLE12=Messin' Round With The Blues (stereo)
TTITLE13=Hold On Baby (stereo)
EXTD=
EXTT0=
EXTT1=
EXTT2=
EXTT3=
EXTT4=
EXTT5=
EXTT6=
EXTT7=
EXTT8=
EXTT9=
EXTT10=
EXTT11=
EXTT12=
EXTT13=
PLAYORDER=
